<?xml version="1.0" encoding="utf-8"?>
<!-- Generator: Adobe Illustrator 19.1.0, SVG Export Plug-In . SVG Version: 6.00 Build 0)  -->
<svg version="1.1" id="Layer_1" xmlns="http://www.w3.org/2000/svg" xmlns:xlink="http://www.w3.org/1999/xlink" x="0px" y="0px"
	 viewBox="0 0 120 90" enable-background="new 0 0 120 90" xml:space="preserve">
<g>
	<path fill="#0071CE" d="M92.778,71.632c-1.241,0-2.397-0.79-2.805-2.035c-0.507-1.549,0.338-3.216,1.888-3.723
		c5.615-1.838,9.243-6.76,9.243-12.539c0-7.32-5.955-13.275-13.274-13.275c-0.509,0-1.056,0.04-1.722,0.126l-2.887,0.374
		l-0.414-2.882c-1.773-12.357-12.538-21.676-25.04-21.676c-10.335,0-19.535,6.187-23.438,15.763l-0.734,1.801l-1.944,0.036
		c-8.936,0.164-16.205,7.564-16.205,16.495c0,6.52,3.785,12.465,9.643,15.146c1.482,0.679,2.134,2.43,1.455,3.913
		c-0.679,1.482-2.43,2.133-3.912,1.456c-7.951-3.64-13.09-11.692-13.09-20.515c0-11.481,8.846-21.098,20.082-22.279
		C34.801,16.994,45.651,10.1,57.768,10.1c14.502,0,27.108,10.167,30.377,24.06c10.431,0.169,18.864,8.706,18.864,19.176
		c0,8.25-5.35,15.544-13.312,18.149C93.393,71.585,93.083,71.632,92.778,71.632z"/>
	<path fill="#DC8327" d="M47.67,73.004c0,0-0.001,0-0.001-0.001c-0.001,0-0.001,0-0.002-0.001h0c0,0,0,0,0,0l-0.001,0
		c0,0,0,0-0.001,0h0l-0.001,0c0,0-0.001,0-0.001,0c0,0,0,0,0,0h-0.001c0,0,0,0,0,0c0,0.001-0.001,0-0.001,0s-0.001,0-0.002,0l0,0
		c0,0,0,0,0,0s0,0-0.001,0c0,0,0,0,0,0c-0.002,0-0.001,0-0.001,0c-0.001,0-0.001-0.001-0.002,0l0,0c0,0,0,0-0.001,0c0,0,0,0-0.001,0
		c-0.001,0-0.002,0-0.003-0.001s-0.002-0.001-0.003-0.001c0,0-0.001,0-0.001-0.001c0,0-0.001,0-0.001,0c0,0-0.001,0-0.001,0
		c-0.001,0-0.002,0-0.001,0c-0.001,0-0.001,0-0.001,0l-0.001-0.001c0,0-0.001,0-0.001,0c0,0,0,0,0,0
		c-0.045-0.016-0.094-0.026-0.145-0.028h-0.001c0,0-0.001,0-0.001,0h-0.001c0,0,0,0,0,0H47.48h0l-0.001,0c0,0-0.001,0-0.001,0
		h-0.001h0c0,0,0,0-0.001,0h0c-0.001,0-0.001,0-0.001,0H47.47c0,0,0,0,0,0c0,0,0,0-0.001,0h0c0,0,0,0,0,0h-0.001h-0.001
		c0,0,0,0-0.001,0h0c0,0,0,0,0,0c-1.277,0-2.323-1.04-2.331-2.315V44.666h1.98c0.003,0,0.007,0,0.01,0
		c0.303,0.013,0.51-0.22,0.51-0.5c0-0.209-0.128-0.388-0.31-0.463l-9.551-6.592c-0.171-0.118-0.397-0.118-0.568,0l-9.626,6.644
		c-0.18,0.125-0.258,0.352-0.193,0.561c0.065,0.209,0.259,0.351,0.478,0.351h1.99l0.001,25.981c0.01,1.796,1.453,3.262,3.289,3.309
		c0.021,0.002,0.041,0.004,0.062,0.004h14.259c0.003,0,0.005,0,0.008,0c0.131-0.002,0.25-0.055,0.338-0.139c0,0,0,0,0,0
		c0.001-0.001,0.003-0.003,0.004-0.004c0,0,0.001-0.001,0.002-0.002c0,0,0,0,0,0l0.001-0.001l0,0l0,0l0,0c0,0,0,0,0,0
		c0.001,0,0,0,0.001-0.001c0,0,0,0,0,0l0,0c0,0,0,0,0,0c0.086-0.089,0.14-0.211,0.141-0.345v-0.001c0,0,0,0,0,0c0,0,0,0,0-0.001v0v0
		v-0.001c0,0,0,0,0,0v-0.001C47.961,73.255,47.842,73.082,47.67,73.004z"/>
	<path fill="#F4B21B" d="M68.323,73.004C68.323,73.003,68.322,73.003,68.323,73.004c-0.002-0.001-0.003-0.001-0.004-0.002h0
		c0,0,0,0,0,0l-0.001,0c0,0,0,0-0.001,0h0l-0.001,0c0.001,0,0,0-0.001,0c0,0,0,0,0,0h0c0,0,0,0,0,0c-0.001,0.001-0.001,0-0.002,0
		c0,0-0.001,0-0.001,0l-0.001,0h0c0,0,0,0,0,0s-0.001,0-0.001,0c-0.001,0-0.001,0-0.002,0c0,0,0-0.001-0.001,0c0,0,0,0,0,0
		c0,0-0.001,0-0.001,0l-0.001,0c-0.001,0-0.002,0-0.003-0.001s-0.002-0.001-0.003-0.001c0,0-0.001,0-0.001-0.001
		c0,0-0.001,0-0.001,0l-0.001,0c-0.002,0-0.001,0-0.001,0c-0.002,0-0.001,0-0.001,0c-0.001,0-0.001-0.001-0.002-0.001l-0.001,0h0
		c-0.045-0.016-0.094-0.026-0.145-0.028c0,0-0.001,0-0.001,0h-0.001c0,0-0.001,0-0.001,0h0h-0.001h0l-0.001,0c0,0-0.001,0-0.001,0
		h-0.001h0c0,0,0,0-0.001,0h0c-0.001,0-0.001,0-0.001,0c0,0-0.001,0-0.001,0h0h-0.001h0c0,0,0,0-0.001,0h0c0,0-0.001,0-0.001,0
		c0,0,0,0,0,0h-0.001c0,0,0,0-0.001,0c-1.277,0-2.322-1.04-2.33-2.315V50.482h1.99c0.007,0,0.013-0.001,0.02,0
		c0.276,0,0.5-0.224,0.5-0.5c0-0.209-0.128-0.388-0.31-0.463l-9.552-6.592c-0.171-0.118-0.397-0.118-0.568,0L48.24,49.57
		c-0.18,0.125-0.258,0.352-0.193,0.561c0.065,0.209,0.259,0.351,0.478,0.351h1.981l0.001,20.165c0.009,1.797,1.454,3.264,3.29,3.309
		c0.02,0.002,0.04,0.003,0.06,0.003h14.259c0.003,0,0.005,0,0.008,0c0.131-0.002,0.25-0.055,0.338-0.139c0,0,0,0,0,0
		c0.001-0.001,0.004-0.003,0.004-0.004c0,0,0.001-0.001,0.002-0.002c0,0,0,0,0.001-0.001l0,0l0,0c0,0,0,0,0,0l0,0l0,0
		c0.002,0,0.001,0,0.001-0.001c0,0,0,0,0,0c0,0,0,0,0,0c0,0,0,0,0,0c0.086-0.089,0.14-0.211,0.141-0.345v-0.001c0,0,0,0,0,0
		c0,0,0,0,0-0.001v0v0v-0.001c0,0,0,0,0,0v-0.001C68.615,73.255,68.495,73.082,68.323,73.004z"/>
	<path fill="#F2D864" d="M88.983,73.004C88.983,73.003,88.982,73.003,88.983,73.004c-0.002-0.001-0.003-0.001-0.003-0.001l-0.001,0
		c0,0,0,0-0.001,0l0,0c0,0,0,0-0.001,0c0,0,0,0,0,0c0,0,0,0-0.001,0l-0.001,0c0,0,0,0,0,0h0c0,0,0,0,0,0
		c-0.001,0.001-0.001,0-0.002,0c0.001,0,0,0-0.001,0l0,0h0c0,0,0,0,0,0l-0.001,0c-0.002,0-0.001,0-0.002,0c0,0,0-0.001-0.001,0
		c0,0,0,0,0,0c0,0-0.001,0-0.001,0l-0.001,0c-0.001,0-0.002,0-0.003-0.001s-0.002-0.001-0.003-0.001c0,0-0.001,0-0.001,0
		c-0.001,0-0.001,0-0.002-0.001l-0.001,0c-0.002,0-0.002,0-0.002,0c-0.002,0-0.001,0-0.001,0c0,0-0.001,0-0.001,0l-0.001,0h0
		c-0.045-0.016-0.094-0.026-0.145-0.028c0,0-0.001,0-0.001,0h-0.001c0,0-0.001,0-0.001,0h0h-0.001h0c0,0-0.001,0-0.001,0H88.79
		c0,0-0.001,0-0.001,0h0c0,0,0,0,0,0h-0.001c-0.001,0-0.001,0-0.001,0c0,0-0.001,0-0.001,0h0h-0.001h0c0,0,0,0-0.001,0h0
		c0,0-0.001,0-0.001,0c0,0,0,0,0,0h-0.001c0,0,0,0-0.001,0c-1.277,0-2.322-1.04-2.33-2.315V56.296h1.985c0.003,0,0.007,0,0.01,0
		c0.281-0.007,0.51-0.22,0.51-0.5c0-0.209-0.128-0.388-0.31-0.463l-9.552-6.592c-0.171-0.118-0.397-0.118-0.568,0l-9.625,6.643
		c-0.18,0.125-0.258,0.352-0.193,0.561c0.065,0.209,0.259,0.351,0.478,0.351h1.985l0.001,14.35c0.01,1.797,1.455,3.264,3.29,3.309
		c0.02,0.002,0.04,0.003,0.06,0.003h14.259c0.003,0,0.005,0,0.008,0c0.131-0.002,0.25-0.055,0.338-0.139c0,0,0,0,0,0
		c0.001-0.001,0.004-0.003,0.004-0.004c0,0,0.001-0.001,0.002-0.002c0,0,0,0,0.001-0.001l0,0l0,0l0,0l0,0c0,0,0,0,0,0
		c0.002,0,0,0,0.001-0.001c0,0,0,0,0,0c0,0,0,0,0,0c0,0,0,0,0,0c0.086-0.089,0.14-0.211,0.141-0.345v-0.001c0,0,0,0,0,0
		c0,0,0,0,0-0.001v0v0v-0.001c0,0,0,0,0,0v-0.001C89.275,73.255,89.155,73.082,88.983,73.004z"/>
</g>
</svg>
