<?xml version="1.0" encoding="utf-8"?>
<!-- Generator: Adobe Illustrator 21.1.0, SVG Export Plug-In . SVG Version: 6.00 Build 0)  -->
<svg version="1.1" id="Layer_1" xmlns="http://www.w3.org/2000/svg" xmlns:xlink="http://www.w3.org/1999/xlink" x="0px" y="0px"
	 viewBox="0 0 48 48" style="enable-background:new 0 0 48 48;" xml:space="preserve">
<style type="text/css">
	.st0{fill:#90A0B3;}
	.st1{fill:#FFFFFF;}
	.st2{fill:#2460AF;}
	.st3{fill:#E86C60;}
	.st4{fill:#D0DAE2;}
	.st5{fill:none;stroke:#90A0B3;stroke-miterlimit:10;}
</style>
<g>
	<path class="st0" d="M24,47c12.7,0,23-10.3,23-23S36.7,1,24,1S1,11.3,1,24S11.3,47,24,47z"/>
	<path class="st1" d="M5.7,32C4.6,29.5,4,26.8,4,24C4,13,13,4,24,4s20,9,20,20c0,2.8-0.6,5.5-1.7,8H5.7z"/>
	<path class="st2" d="M21.9,26.1c1.2,1.2,3.1,1.2,4.2,0C27.3,25,30,18,30,18s-6.9,2.7-8.1,3.9C20.7,23,20.7,25,21.9,26.1z"/>
	<path class="st3" d="M24,9c4.1,0,7.9,1.7,10.6,4.4l-2.8,2.8c-2-2-4.7-3.2-7.8-3.2c-6.1,0-11,4.9-11,11H9C9,15.7,15.7,9,24,9z"/>
	<path class="st4" d="M39,24h-4c0-3-1.2-5.8-3.2-7.8l2.8-2.8C37.3,16.1,39,19.9,39,24z"/>
</g>
<line class="st5" x1="23.7" y1="3.2" x2="23.7" y2="7.5"/>
<g>
	<line class="st5" x1="6.2" y1="24" x2="1.8" y2="24"/>
	<line class="st5" x1="46.2" y1="24" x2="41.8" y2="24"/>
</g>
<g>
	<line class="st5" x1="11.4" y1="36.6" x2="8.3" y2="39.7"/>
	<line class="st5" x1="39.7" y1="8.3" x2="36.6" y2="11.4"/>
</g>
<g>
	<line class="st5" x1="36.6" y1="36.6" x2="39.7" y2="39.7"/>
	<line class="st5" x1="8.3" y1="8.3" x2="11.4" y2="11.4"/>
</g>
</svg>
