<svg class="nc-icon outline" xmlns="http://www.w3.org/2000/svg" xmlns:xlink="http://www.w3.org/1999/xlink" x="0px" y="0px" width="32px" height="32px" viewBox="0 0 32 32"><g transform="translate(0, 0)">
<line data-cap="butt" fill="none" stroke="#444444" stroke-width="2" stroke-miterlimit="10" x1="15" y1="12" x2="20" y2="17" stroke-linejoin="miter" stroke-linecap="butt"></line>
<rect x="9.5" y="7" transform="matrix(0.7071 0.7071 -0.7071 0.7071 17.2425 -3.6275)" fill="none" stroke="#444444" stroke-width="2" stroke-linecap="square" stroke-miterlimit="10" width="7.1" height="24" stroke-linejoin="miter"></rect>
<path data-color="color-2" fill="none" stroke="#444444" stroke-width="2" stroke-linecap="square" stroke-miterlimit="10" d="M30,8
	c-1.4-1.4-4.6-1.4-6,0c1.4-1.4,1.4-4.6,0-6c1.4,1.4,4.6,1.4,6,0C28.6,3.4,28.6,6.6,30,8z" stroke-linejoin="miter"></path>
<path data-color="color-2" fill="none" stroke="#444444" stroke-width="2" stroke-linecap="square" stroke-miterlimit="10" d="M31,23
	c-1.4-1.4-4.6-1.4-6,0c1.4-1.4,1.4-4.6,0-6c1.4,1.4,4.6,1.4,6,0C29.6,18.4,29.6,21.6,31,23z" stroke-linejoin="miter"></path>
<path data-color="color-2" fill="none" stroke="#444444" stroke-width="2" stroke-linecap="square" stroke-miterlimit="10" d="M15,7
	c-1.4-1.4-4.6-1.4-6,0c1.4-1.4,1.4-4.6,0-6c1.4,1.4,4.6,1.4,6,0C13.6,2.4,13.6,5.6,15,7z" stroke-linejoin="miter"></path>
</g></svg>