<?xml version="1.0" encoding="utf-8"?>
<!-- Generator: Adobe Illustrator 21.1.0, SVG Export Plug-In . SVG Version: 6.00 Build 0)  -->
<svg version="1.1" id="Layer_1" xmlns="http://www.w3.org/2000/svg" xmlns:xlink="http://www.w3.org/1999/xlink" x="0px" y="0px"
	 viewBox="0 0 24 24" style="enable-background:new 0 0 24 24;" xml:space="preserve">
<style type="text/css">
	.st0{fill:#3A4047;}
</style>
<g>
	<path class="st0" d="M24,10.5c0-1.1-0.7-2-1.6-2.3V1.7c0-0.3-0.2-0.5-0.4-0.6c-0.2-0.1-0.5-0.1-0.7,0.1c0,0-1.6,1.6-3.9,2.9
		c-2.2,1.3-5.4,1.6-5.4,1.6H3.4C1.5,5.8,0,7.3,0,9.2v2.5c0,1.9,1.5,3.4,3.4,3.4h3.3l3.3,7.5c0.1,0.2,0.3,0.4,0.6,0.4c0,0,0,0,0,0
		c0.3,0,0.5-0.2,0.6-0.4l1-2.3c0.1-0.2,0.1-0.4,0-0.5l-2.1-4.7h1.7c0.4,0.1,3.3,0.5,5.4,1.8c2.3,1.3,3.9,2.9,3.9,2.9
		c0.1,0.1,0.3,0.2,0.5,0.2c0.1,0,0.2,0,0.3-0.1c0.3-0.1,0.4-0.3,0.4-0.6v-6.5C23.3,12.4,24,11.5,24,10.5z M21,17.8
		c-0.7-0.6-1.8-1.4-3-2.1c-2-1.2-4.6-1.7-5.6-1.9V7.1c1-0.1,3.6-0.5,5.6-1.7c1.2-0.7,2.3-1.5,3-2.1V17.8z M22.4,12V8.9
		c0.6,0.3,1,0.9,1,1.6C23.3,11.2,22.9,11.7,22.4,12z"/>
</g>
</svg>
