<svg id="Layer_1" data-name="Layer 1" xmlns="http://www.w3.org/2000/svg" viewBox="0 0 24 24"><defs><style>.cls-1{fill:#5b616a;}</style></defs><title>web-speed-testicons</title><path class="cls-1" d="M20.8,11.4A8.75,8.75,0,0,1,21,13a9,9,0,0,1-.9,4c-2,1.1-2.9.5-3.8-.2a2.6,2.6,0,0,0-2.6-.7,4.35,4.35,0,0,0-2.4,2.4A6.8,6.8,0,0,0,11,22a8.43,8.43,0,0,1-5.1-2.4,4.14,4.14,0,0,0-.2-4.3,3.92,3.92,0,0,0-.8-1,1.1,1.1,0,0,1,.3-1.7A6,6,0,0,0,7.5,11C8.7,9.2,7.3,6.6,7,6.1a1.38,1.38,0,0,1-.3-.4A9.88,9.88,0,0,1,10,4.2a6.46,6.46,0,0,1,.6-2.1A11,11,0,1,0,23,13a11.33,11.33,0,0,0-.6-3.6A15.58,15.58,0,0,1,20.8,11.4Z"/><path class="cls-1" d="M17,0a5,5,0,0,0-5,5c0,2.8,3.9,6.4,4.3,6.7a1,1,0,0,0,1.4,0C18.1,11.4,22,7.8,22,5A5,5,0,0,0,17,0Zm0,7a2,2,0,1,1,2-2A2,2,0,0,1,17,7Z"/></svg>