<?xml version="1.0" encoding="utf-8"?>
<!-- Generator: Adobe Illustrator 25.3.1, SVG Export Plug-In . SVG Version: 6.00 Build 0)  -->
<svg version="1.1" id="Layer_1" xmlns="http://www.w3.org/2000/svg" xmlns:xlink="http://www.w3.org/1999/xlink" x="0px" y="0px"
	 viewBox="0 0 95 87.6" style="enable-background:new 0 0 95 87.6;" xml:space="preserve">
<style type="text/css">
	.st0{fill-rule:evenodd;clip-rule:evenodd;fill:#3448C5;}
	.st1{fill-rule:evenodd;clip-rule:evenodd;fill:#1D3C90;}
	.st2{fill:#FF3A47;}
</style>
<g>
	<path class="st0" d="M79.6,70.7l-2.8-2.8c2.6-2.6,4.1-6.1,4.1-10c0-7.8-6.3-14.1-14.2-14.1v-4.3c10.1,0,18.3,8.2,18.3,18.3
		C85,62.8,82.9,67.3,79.6,70.7L79.6,70.7z M68.8,14.5c0-4.3-3.5-7.8-7.8-7.8H12.3c-4.3,0-7.8,3.5-7.8,7.8c0,16.4,0,24.3,0,40.7
		c0,4.3,3.5,7.7,7.7,7.7h11.5v-4.3H12.3c-1.9,0-3.5-1.6-3.5-3.5c0-14.5,0-20.5,0-35h55.7v10.1c-4.8,0.4-9.3,2-13.1,4.5l-1.6-1.6
		c-0.9-0.9-2.4-0.9-3.3,0c-0.9,0.9-0.9,2.4,0,3.3l1.2,1.2c-0.2,0.2-0.4,0.4-0.5,0.6c-5,5-8.1,11.9-8.1,19.5c0,0.3,0,0.5,0,0.8h-8.4
		c-1.3,0-2.3,1-2.3,2.3c0,1.3,1,2.3,2.3,2.3h19.6c1.3,0,2.3-1,2.3-2.3c0-1.3-1-2.3-2.3-2.3h-6.5c0-0.3,0-0.5,0-0.8
		c0-6.3,2.6-12,6.7-16.2c4.3-4.3,10.1-6.7,16.2-6.7c6.1,0,11.9,2.4,16.2,6.7c4.2,4.1,6.7,9.9,6.7,16.2c0,6.3-2.6,12.1-6.7,16.2
		c-4.1,4.2-9.9,6.7-16.2,6.7c-4.6,0-8.8-1.3-12.4-3.7c-3.7-2.4-6.7-5.8-8.5-9.8c-0.5-1.2-1.9-1.7-3.1-1.2c-1.2,0.5-1.7,1.9-1.2,3.1
		c2.2,4.9,5.8,9,10.2,11.8c4.3,2.8,9.4,4.4,14.9,4.4c7.6,0,14.5-3.1,19.5-8.1c5-5,8.1-11.9,8.1-19.5c0-7.6-3.1-14.5-8.1-19.5
		c-0.2-0.2-0.4-0.4-0.5-0.6l1.2-1.2c0.9-0.9,0.9-2.4,0-3.3c-0.9-0.9-2.4-0.9-3.3,0L82,34.9c-3.8-2.6-8.3-4.2-13.2-4.6
		C68.8,22.2,68.8,22.6,68.8,14.5L68.8,14.5z M34.6,65.8c1.3,0,2.3,1,2.3,2.3c0,1.3-1,2.3-2.3,2.3h-7.4c-1.3,0-2.3-1-2.3-2.3
		c0-1.3,1-2.3,2.3-2.3H34.6z M62.3,12.3c1.1,0,2,0.9,2,2c0,1.1-0.9,2-2,2s-2-0.9-2-2C60.3,13.2,61.2,12.3,62.3,12.3L62.3,12.3z
		 M55,12.3c1.1,0,2,0.9,2,2c0,1.1-0.9,2-2,2c-1.1,0-2-0.9-2-2C52.9,13.2,53.8,12.3,55,12.3L55,12.3z"/>
	<path class="st1" d="M66.7,69.4c6.4,0,11.7-5.2,11.7-11.7c0-6.4-5.2-11.6-11.7-11.6c-6.4,0-11.6,5.2-11.6,11.6
		C55.1,64.2,60.3,69.4,66.7,69.4L66.7,69.4z"/>
</g>
<path class="st1" d="M31.2,27.1c2.2,0,3.9,1.8,3.9,3.9c0,2.2-1.8,3.9-3.9,3.9c-2.2,0-3.9-1.7-3.9-3.9C27.3,28.9,29,27.1,31.2,27.1
	L31.2,27.1z"/>
<path class="st1" d="M14.1,49c-0.5,0-0.9-0.4-0.9-0.9v-3.6l7.2-7.2c0.3-0.3,0.8-0.3,1.1,0l6.9,7.4c0.1,0.2,0.3,0.2,0.4,0l3.3-3.5
	c0.4-0.4,0.7-0.4,1.1,0l3.9,3.9v3c0,0.5-0.4,0.9-0.9,0.9H14.1z"/>
<g>
	<path class="st2" d="M5.5,87.2c-1.3,0-2.6-0.5-3.5-1.5c-2-2-2-5.1,0-7.1L79.1,1.5c2-2,5.1-2,7.1,0c2,2,2,5.1,0,7.1L9,85.8
		C8,86.7,6.7,87.2,5.5,87.2z"/>
</g>
</svg>
