<?xml version="1.0" encoding="utf-8"?>
<!-- Generator: Adobe Illustrator 21.1.0, SVG Export Plug-In . SVG Version: 6.00 Build 0)  -->
<svg version="1.1" id="Layer_1" xmlns="http://www.w3.org/2000/svg" xmlns:xlink="http://www.w3.org/1999/xlink" x="0px" y="0px"
	 viewBox="0 0 35 23" style="enable-background:new 0 0 35 23;" xml:space="preserve">
<style type="text/css">
	.st0{fill:#90A0B3;}
</style>
<path class="st0" d="M30.2,22.1c-0.1,0-0.2,0.1-0.3,0.1c-0.4,0-0.9-0.3-1-0.7c-0.2-0.6,0.1-1.2,0.7-1.3c2-0.7,3.3-2.4,3.3-4.5
	c0-2.6-2.1-4.8-4.8-4.8c-0.2,0-0.4,0-0.6,0l-1,0.1l-0.1-1c-0.6-4.5-4.5-7.8-9-7.8c-3.7,0-7,2.2-8.4,5.7L8.7,8.5H8
	c-3.2,0.1-5.8,2.7-5.8,5.9c0,2.3,1.4,4.5,3.5,5.5c0.5,0.2,0.8,0.9,0.5,1.4c-0.2,0.5-0.9,0.8-1.4,0.5c-2.9-1.3-4.7-4.2-4.7-7.4
	c0-4.1,3.2-7.6,7.2-8C9.2,2.5,13.1,0,17.4,0c5.2,0,9.7,3.7,10.9,8.7c3.7,0.1,6.8,3.1,6.8,6.9C35,18.5,33.1,21.2,30.2,22.1z M9.9,9.7
	c0.1,0,0.1,0,0.2,0l3.4,2.4c0.1,0,0.1,0.1,0.1,0.2s-0.1,0.2-0.2,0.2l0,0h-0.7v9.4c0,0.5,0.4,0.8,0.8,0.8l0,0l0,0l0,0l0,0l0,0l0,0
	l0,0l0,0l0,0l0,0l0,0l0,0l0,0l0,0l0,0l0,0l0,0l0,0l0,0l0,0l0,0c0,0,0,0,0.1,0l0,0l0,0l0,0l0,0l0,0l0,0l0,0l0,0l0,0l0,0l0,0l0,0l0,0
	l0,0l0,0l0,0l0,0l0,0l0,0l0,0l0,0l0,0l0,0l0,0l0,0l0,0l0,0l0,0l0,0l0,0l0,0l0,0c0.1,0,0.1,0.1,0.1,0.2l0,0l0,0l0,0l0,0l0,0l0,0l0,0
	l0,0c0,0,0,0.1-0.1,0.1l0,0l0,0l0,0l0,0l0,0l0,0l0,0l0,0l0,0l0,0l0,0l0,0l0,0h-0.1l0,0H8.4l0,0c-0.7,0-1.2-0.5-1.2-1.2v-9.4H6.5
	c-0.1,0-0.1-0.1-0.2-0.1c0-0.1,0-0.2,0.1-0.2L9.9,9.7z M17.4,11.8c0.1,0,0.1,0,0.2,0l3.4,2.4c0.1,0,0.1,0.1,0.1,0.2
	s-0.1,0.2-0.2,0.2l0,0h-0.7v7.3c0,0.5,0.4,0.8,0.8,0.8l0,0l0,0l0,0l0,0l0,0l0,0l0,0l0,0l0,0l0,0l0,0l0,0l0,0l0,0l0,0l0,0l0,0l0,0
	l0,0l0,0l0,0l0,0l0,0c0,0,0,0,0.1,0l0,0l0,0l0,0l0,0l0,0l0,0l0,0l0,0l0,0l0,0l0,0l0,0l0,0l0,0l0,0l0,0l0,0l0,0l0,0l0,0l0,0l0,0l0,0
	l0,0l0,0l0,0l0,0l0,0l0,0l0,0l0,0l0,0c0.1,0,0.1,0.1,0.1,0.2l0,0l0,0l0,0l0,0l0,0l0,0l0,0l0,0c0,0,0,0.1-0.1,0.1l0,0l0,0l0,0l0,0
	l0,0l0,0l0,0l0,0l0,0l0,0l0,0l0,0l0,0H21l0,0h-5.1l0,0c-0.7,0-1.2-0.5-1.2-1.2v-7.3H14c-0.1,0-0.1-0.1-0.2-0.1c0-0.1,0-0.2,0.1-0.2
	L17.4,11.8z M24.8,13.9c0.1,0,0.1,0,0.2,0l3.4,2.4c0.1,0,0.1,0.1,0.1,0.2s-0.1,0.2-0.2,0.2l0,0h-0.7v5.2c0,0.5,0.4,0.8,0.8,0.8l0,0
	l0,0l0,0l0,0l0,0l0,0l0,0l0,0l0,0l0,0l0,0l0,0l0,0l0,0l0,0l0,0l0,0l0,0c0,0,0,0,0.1,0l0,0l0,0l0,0l0,0l0,0l0,0l0,0l0,0l0,0l0,0l0,0
	l0,0l0,0l0,0l0,0l0,0l0,0l0,0l0,0l0,0l0,0l0,0l0,0l0,0l0,0l0,0l0,0l0,0l0,0l0,0l0,0l0,0c0.1,0,0.1,0.1,0.1,0.2l0,0l0,0l0,0l0,0l0,0
	l0,0l0,0l0,0c0,0,0,0.1-0.1,0.1l0,0l0,0l0,0l0,0l0,0l0,0l0,0l0,0l0,0l0,0l0,0l0,0l0,0h-0.1l0,0h-5.1l0,0c-0.7,0-1.2-0.5-1.2-1.2
	v-5.2h-0.7c-0.1,0-0.1-0.1-0.2-0.1c0-0.1,0-0.2,0.1-0.2L24.8,13.9z"/>
</svg>
