<?xml version="1.0" encoding="utf-8"?>
<!-- Generator: Adobe Illustrator 25.2.3, SVG Export Plug-In . SVG Version: 6.00 Build 0)  -->
<svg version="1.1" id="Layer_1" xmlns="http://www.w3.org/2000/svg" xmlns:xlink="http://www.w3.org/1999/xlink" x="0px" y="0px"
	 viewBox="0 0 89.7 78.6" style="enable-background:new 0 0 89.7 78.6;" xml:space="preserve">
<style type="text/css">
	.st0{fill-rule:evenodd;clip-rule:evenodd;fill:#3346C6;}
	.st1{fill-rule:evenodd;clip-rule:evenodd;fill:#B6D2FF;}
</style>
<g>
	<path class="st0" d="M75,63.9l-2.8-2.8c2.6-2.6,4.1-6.1,4.1-10c0-7.8-6.3-14.1-14.2-14.1v-4.3c10.1,0,18.3,8.2,18.3,18.3
		C80.4,56,78.3,60.6,75,63.9L75,63.9z M64.2,7.8c0-4.3-3.5-7.8-7.8-7.8H7.8C3.5,0,0,3.5,0,7.8c0,16.4,0,24.3,0,40.7
		c0,4.3,3.5,7.7,7.7,7.7h11.5V52H7.7c-1.9,0-3.5-1.6-3.5-3.5c0-14.5,0-20.5,0-35H60v10.1c-4.8,0.4-9.3,2-13.1,4.5l-1.6-1.6
		c-0.9-0.9-2.4-0.9-3.3,0c-0.9,0.9-0.9,2.4,0,3.3l1.2,1.2c-0.2,0.2-0.4,0.4-0.5,0.6c-5,5-8.1,11.9-8.1,19.5c0,0.3,0,0.5,0,0.8h-8.4
		c-1.3,0-2.3,1-2.3,2.3c0,1.3,1,2.3,2.3,2.3h19.6c1.3,0,2.3-1,2.3-2.3c0-1.3-1-2.3-2.3-2.3h-6.5c0-0.3,0-0.5,0-0.8
		c0-6.3,2.6-12,6.7-16.2c4.3-4.3,10.1-6.7,16.2-6.7c6.1,0,11.9,2.4,16.2,6.7c4.2,4.1,6.7,9.9,6.7,16.2c0,6.3-2.6,12.1-6.7,16.2
		c-4.1,4.2-9.9,6.7-16.2,6.7c-4.6,0-8.8-1.3-12.4-3.7c-3.7-2.4-6.7-5.8-8.5-9.8c-0.5-1.2-1.9-1.7-3.1-1.2c-1.2,0.5-1.7,1.9-1.2,3.1
		c2.2,4.9,5.8,9,10.2,11.8c4.3,2.8,9.4,4.4,14.9,4.4c7.6,0,14.5-3.1,19.5-8.1c5-5,8.1-11.9,8.1-19.5c0-7.6-3.1-14.5-8.1-19.5
		c-0.2-0.2-0.4-0.4-0.5-0.6l1.2-1.2c0.9-0.9,0.9-2.4,0-3.3c-0.9-0.9-2.4-0.9-3.3,0l-1.6,1.6c-3.8-2.6-8.3-4.2-13.2-4.6
		C64.2,15.4,64.2,15.9,64.2,7.8L64.2,7.8z M30,59.1c1.3,0,2.3,1,2.3,2.3c0,1.3-1,2.3-2.3,2.3h-7.4c-1.3,0-2.3-1-2.3-2.3
		c0-1.3,1-2.3,2.3-2.3H30z M57.7,5.6c1.1,0,2,0.9,2,2c0,1.1-0.9,2-2,2s-2-0.9-2-2C55.7,6.5,56.6,5.6,57.7,5.6L57.7,5.6z M50.4,5.6
		c1.1,0,2,0.9,2,2c0,1.1-0.9,2-2,2c-1.1,0-2-0.9-2-2C48.4,6.5,49.3,5.6,50.4,5.6L50.4,5.6z"/>
	<path class="st1" d="M62.1,62.7c6.4,0,11.7-5.2,11.7-11.7c0-6.4-5.2-11.6-11.7-11.6c-6.4,0-11.6,5.2-11.6,11.6
		C50.5,57.4,55.8,62.7,62.1,62.7L62.1,62.7z"/>
</g>
<path class="st0" d="M26.6,20.4c2.2,0,3.9,1.8,3.9,3.9c0,2.2-1.8,3.9-3.9,3.9c-2.2,0-3.9-1.7-3.9-3.9C22.7,22.1,24.4,20.4,26.6,20.4
	L26.6,20.4z"/>
<path class="st0" d="M9.6,42.2c-0.5,0-0.9-0.4-0.9-0.9v-3.6l7.2-7.2c0.3-0.3,0.8-0.3,1.1,0l6.9,7.4c0.1,0.2,0.3,0.2,0.4,0l3.3-3.5
	c0.4-0.4,0.7-0.4,1.1,0l3.9,3.9v3c0,0.5-0.4,0.9-0.9,0.9H9.6z"/>
</svg>
