<?xml version="1.0" encoding="utf-8"?>
<!-- Generator: Adobe Illustrator 25.2.3, SVG Export Plug-In . SVG Version: 6.00 Build 0)  -->
<svg version="1.1" id="Layer_1" xmlns="http://www.w3.org/2000/svg" xmlns:xlink="http://www.w3.org/1999/xlink" x="0px" y="0px"
	 viewBox="0 0 150 31" style="enable-background:new 0 0 150 31;" xml:space="preserve">
<style type="text/css">
	.st0{clip-path:url(#SVGID_2_);fill:#2F80ED;}
	.st1{clip-path:url(#SVGID_2_);fill-rule:evenodd;clip-rule:evenodd;fill:#2F80ED;}
	.st2{clip-path:url(#SVGID_2_);fill:#FFFFFF;}
</style>
<g>
	<defs>
		<rect id="SVGID_1_" width="150" height="31"/>
	</defs>
	<clipPath id="SVGID_2_">
		<use xlink:href="#SVGID_1_"  style="overflow:visible;"/>
	</clipPath>
	<path class="st0" d="M13.5,12.5c-0.7,0.7-0.7,1.8,0,2.5C14.4,16,18,17,18,17s-1-3.5-1.9-4.5C15.4,11.8,14.3,11.8,13.5,12.5
		L13.5,12.5z"/>
	<path class="st1" d="M27.7,15.8c-0.2,2.7-1.2,5.3-3,7.4L23,21.4c-0.3-0.3-0.7-0.4-1.1-0.3s-0.7,0.4-0.8,0.8c-0.1,0.4,0,0.8,0.3,1.1
		l1.8,1.8c-2.3,1.9-5.2,3-8.2,3c-3.1,0-6-1.1-8.2-3L8.6,23c0.3-0.3,0.4-0.7,0.3-1.1c-0.1-0.4-0.4-0.7-0.8-0.8
		c-0.4-0.1-0.8,0-1.1,0.3l-1.8,1.8c-1.8-2.1-2.8-4.7-3-7.4h2.6c0.6,0,1.1-0.5,1.1-1.1s-0.5-1.1-1.1-1.1H2.3C2.6,11,3.6,8.7,5.2,6.8
		L7,8.6C7.5,9,8.2,9,8.6,8.6C9,8.2,9,7.5,8.6,7L6.8,5.2c2-1.7,4.5-2.7,7.1-2.9v2.6C13.9,5.5,14.4,6,15,6s1.1-0.5,1.1-1.1V2.3
		c2.6,0.2,5.1,1.2,7.1,2.9L21.4,7c-0.3,0.3-0.4,0.7-0.3,1.1c0.1,0.4,0.4,0.7,0.8,0.8c0.4,0.1,0.8,0,1.1-0.3l1.8-1.8
		c1.6,1.9,2.6,4.2,2.9,6.7h-2.5c-0.6,0-1.1,0.5-1.1,1.1s0.5,1.1,1.1,1.1H27.7z M30,15c0,8.3-6.7,15-15,15S0,23.3,0,15S6.7,0,15,0
		S30,6.7,30,15z"/>
	<path class="st2" d="M105.5,23.3v3.2c0,0.3,0.1,0.5,0.2,0.6c0.1,0.1,0.3,0.2,0.6,0.2h0.7V28h-0.8c-0.5,0-0.9-0.1-1.1-0.3
		c-0.3-0.2-0.4-0.6-0.4-1.2v-3.2h-0.7v-0.8h0.7v-1.4h0.9v1.4h1.4v0.8H105.5z M100.7,22.4c0.7,0,1.2,0.2,1.6,0.6
		c0.4,0.4,0.6,1,0.6,1.7V28h-0.9v-3.1c0-0.5-0.1-1-0.4-1.2c-0.3-0.3-0.6-0.4-1.1-0.4c-0.5,0-0.9,0.1-1.1,0.4
		c-0.3,0.3-0.4,0.7-0.4,1.3v3H98v-5.5h0.9v0.8c0.2-0.3,0.4-0.5,0.7-0.6C100,22.5,100.3,22.4,100.7,22.4z M96.5,22.5V28h-0.9v-5.5
		H96.5z M96,21.6c-0.2,0-0.3-0.1-0.4-0.2c-0.1-0.1-0.2-0.3-0.2-0.4c0-0.2,0.1-0.3,0.2-0.4s0.3-0.2,0.4-0.2c0.2,0,0.3,0.1,0.4,0.2
		c0.1,0.1,0.2,0.3,0.2,0.4c0,0.2-0.1,0.3-0.2,0.4C96.4,21.6,96.2,21.6,96,21.6z M91.6,27.3c0.3,0,0.6-0.1,0.9-0.2
		c0.3-0.2,0.5-0.4,0.7-0.7c0.2-0.3,0.3-0.7,0.3-1.1s-0.1-0.8-0.3-1.1c-0.2-0.3-0.4-0.5-0.7-0.7c-0.3-0.2-0.6-0.2-0.9-0.2
		c-0.3,0-0.6,0.1-0.9,0.2c-0.3,0.2-0.5,0.4-0.7,0.7c-0.2,0.3-0.2,0.7-0.2,1.1c0,0.4,0.1,0.8,0.2,1.1c0.2,0.3,0.4,0.5,0.7,0.7
		C90.9,27.2,91.2,27.3,91.6,27.3L91.6,27.3z M91.6,28.1c-0.5,0-1-0.1-1.4-0.4c-0.4-0.2-0.8-0.6-1-1c-0.2-0.4-0.3-0.9-0.3-1.5
		c0-0.6,0.1-1.1,0.4-1.5c0.2-0.4,0.6-0.8,1-1c0.4-0.2,0.9-0.4,1.4-0.4c0.5,0,1,0.1,1.4,0.4c0.4,0.2,0.8,0.6,1,1
		c0.2,0.4,0.4,0.9,0.4,1.5s-0.1,1.1-0.4,1.5c-0.2,0.4-0.6,0.8-1,1C92.6,28,92.1,28.1,91.6,28.1L91.6,28.1z M87.1,25.2
		c0-0.4-0.1-0.8-0.2-1.1c-0.2-0.3-0.4-0.5-0.7-0.7c-0.3-0.2-0.6-0.2-0.9-0.2c-0.3,0-0.6,0.1-0.9,0.2c-0.3,0.2-0.5,0.4-0.7,0.7
		c-0.2,0.3-0.2,0.7-0.2,1.1c0,0.4,0.1,0.8,0.2,1.1c0.2,0.3,0.4,0.5,0.7,0.7c0.3,0.2,0.6,0.2,0.9,0.2c0.3,0,0.7-0.1,0.9-0.2
		c0.3-0.2,0.5-0.4,0.7-0.7C87,26,87.1,25.7,87.1,25.2z M83.3,23.5c0.2-0.3,0.4-0.6,0.8-0.8c0.4-0.2,0.8-0.3,1.2-0.3
		c0.5,0,0.9,0.1,1.3,0.4c0.4,0.2,0.7,0.6,0.9,1c0.2,0.4,0.3,0.9,0.3,1.5c0,0.6-0.1,1-0.3,1.5c-0.4,0.9-1.3,1.4-2.3,1.4
		c-0.5,0-0.9-0.1-1.2-0.3c-0.3-0.2-0.6-0.5-0.8-0.8l0,3.6h-0.9v-8.1h0.9L83.3,23.5L83.3,23.5z M78.7,22.4c0.4,0,0.8,0.1,1.1,0.3
		c0.3,0.2,0.6,0.4,0.8,0.8c0.2,0.4,0.3,0.8,0.3,1.3V28H80v-3.1c0-0.5-0.1-1-0.4-1.2c-0.3-0.3-0.6-0.4-1.1-0.4
		c-0.5,0-0.9,0.1-1.2,0.4c-0.3,0.3-0.4,0.7-0.4,1.3v3H76v-7.4h0.9v2.7c0.2-0.3,0.4-0.5,0.7-0.6C78,22.5,78.4,22.4,78.7,22.4
		L78.7,22.4z M69.6,25.2c0-0.6,0.1-1.1,0.3-1.5c0.2-0.4,0.5-0.8,0.9-1c0.4-0.2,0.9-0.4,1.4-0.4c0.7,0,1.2,0.2,1.7,0.5
		c0.4,0.3,0.7,0.8,0.9,1.4h-1c-0.1-0.3-0.3-0.6-0.6-0.8c-0.3-0.2-0.6-0.3-1-0.3c-0.5,0-0.9,0.2-1.3,0.5c-0.3,0.4-0.5,0.9-0.5,1.5
		c0,0.7,0.2,1.2,0.5,1.5c0.3,0.4,0.7,0.5,1.3,0.5c0.4,0,0.7-0.1,1-0.3c0.3-0.2,0.5-0.5,0.6-0.8h1c-0.1,0.6-0.4,1-0.9,1.4
		c-0.4,0.3-1,0.5-1.7,0.5c-0.5,0-1-0.1-1.4-0.4c-0.4-0.2-0.7-0.6-0.9-1C69.7,26.3,69.6,25.8,69.6,25.2L69.6,25.2z M67.4,23.3v3.2
		c0,0.3,0.1,0.5,0.2,0.6c0.1,0.1,0.3,0.2,0.6,0.2h0.7V28H68c-0.5,0-0.9-0.1-1.1-0.3c-0.3-0.2-0.4-0.6-0.4-1.2v-3.2h-0.7v-0.8h0.7
		v-1.4h0.9v1.4h1.4v0.8H67.4z M63.9,25.2c0-0.4-0.1-0.8-0.2-1.1c-0.2-0.3-0.4-0.5-0.7-0.7c-0.3-0.2-0.6-0.2-0.9-0.2
		s-0.7,0.1-0.9,0.2c-0.3,0.2-0.5,0.4-0.7,0.7c-0.2,0.3-0.2,0.7-0.2,1.1c0,0.4,0.1,0.8,0.2,1.1c0.2,0.3,0.4,0.5,0.7,0.7
		c0.3,0.2,0.6,0.2,0.9,0.2s0.7-0.1,0.9-0.2c0.3-0.2,0.5-0.4,0.7-0.7C63.8,26,63.9,25.7,63.9,25.2z M59.2,25.2c0-0.6,0.1-1,0.3-1.5
		c0.2-0.4,0.5-0.8,0.9-1c0.4-0.2,0.8-0.4,1.3-0.4c0.5,0,0.9,0.1,1.2,0.3c0.4,0.2,0.6,0.5,0.8,0.8v-1h0.9V28h-0.9v-1
		c-0.2,0.3-0.5,0.6-0.8,0.8c-0.4,0.2-0.8,0.3-1.2,0.3c-0.5,0-0.9-0.1-1.3-0.4c-0.4-0.2-0.7-0.6-0.9-1C59.3,26.3,59.2,25.8,59.2,25.2
		z M51.5,24.5c0-0.7,0.2-1.3,0.5-1.8c0.3-0.5,0.7-1,1.2-1.3c0.5-0.3,1.1-0.5,1.8-0.5c0.8,0,1.4,0.2,2,0.5c0.6,0.4,1,0.9,1.2,1.6
		h-1.1c-0.2-0.4-0.5-0.7-0.8-1c-0.4-0.2-0.8-0.3-1.3-0.3c-0.5,0-0.9,0.1-1.3,0.3c-0.4,0.2-0.7,0.6-0.9,1c-0.2,0.4-0.3,0.9-0.3,1.5
		c0,0.6,0.1,1,0.3,1.5c0.2,0.4,0.5,0.7,0.9,1c0.4,0.2,0.8,0.3,1.3,0.3c0.5,0,0.9-0.1,1.3-0.3c0.4-0.2,0.6-0.5,0.8-1h1.1
		c-0.3,0.7-0.7,1.2-1.2,1.6c-0.6,0.4-1.2,0.5-2,0.5c-0.6,0-1.2-0.2-1.8-0.5c-0.5-0.3-1-0.7-1.2-1.3C51.6,25.8,51.5,25.2,51.5,24.5z
		 M48.2,22.5l-3.3,8.1H44l1.1-2.6l-2.2-5.4h1l1.7,4.4l1.7-4.4H48.2z M41.4,25.2c0-0.4-0.1-0.8-0.2-1.1c-0.2-0.3-0.4-0.5-0.7-0.7
		c-0.3-0.2-0.6-0.2-0.9-0.2c-0.3,0-0.6,0.1-0.9,0.2c-0.3,0.2-0.5,0.4-0.7,0.7c-0.2,0.3-0.2,0.7-0.2,1.1c0,0.4,0.1,0.8,0.2,1.1
		c0.2,0.3,0.4,0.5,0.7,0.7c0.3,0.2,0.6,0.2,0.9,0.2c0.3,0,0.6-0.1,0.9-0.2c0.3-0.2,0.5-0.4,0.7-0.7C41.3,26,41.4,25.7,41.4,25.2z
		 M37.7,23.5c0.2-0.3,0.5-0.6,0.8-0.8c0.4-0.2,0.8-0.3,1.2-0.3c0.5,0,0.9,0.1,1.3,0.4c0.4,0.2,0.7,0.6,0.9,1
		c0.2,0.4,0.3,0.9,0.3,1.5c0,0.6-0.1,1-0.3,1.5c-0.4,0.9-1.3,1.4-2.3,1.4c-0.5,0-0.9-0.1-1.2-0.3c-0.3-0.2-0.6-0.5-0.8-0.8l0,1h-0.9
		v-7.4h0.9V23.5z M149.3,10.7V13h-1.4c-1,0-1.8-0.2-2.3-0.7c-0.6-0.5-0.8-1.3-0.8-2.4V6.3h-1.1V4.1h1.1V1.9h2.7v2.2h1.8v2.3h-1.8
		v3.6c0,0.3,0.1,0.5,0.2,0.6c0.1,0.1,0.3,0.2,0.6,0.2H149.3z M139,13.1c-0.8,0-1.5-0.1-2.1-0.4c-0.6-0.3-1.1-0.6-1.4-1.1
		c-0.3-0.5-0.6-1-0.6-1.6h2.7c0,0.3,0.2,0.6,0.4,0.8c0.3,0.2,0.6,0.3,0.9,0.3c0.3,0,0.6-0.1,0.8-0.2c0.2-0.1,0.3-0.3,0.3-0.5
		c0-0.3-0.1-0.4-0.4-0.6c-0.3-0.1-0.7-0.3-1.3-0.4c-0.5-0.1-1.1-0.3-1.6-0.5c-0.4-0.2-0.8-0.4-1.1-0.8c-0.3-0.4-0.5-0.8-0.5-1.5
		c0-0.5,0.1-1,0.4-1.4c0.3-0.4,0.7-0.8,1.2-1c0.6-0.2,1.2-0.4,2-0.4c1.1,0,2,0.3,2.6,0.8c0.7,0.6,1,1.3,1.1,2.2h-2.5
		c0-0.3-0.2-0.6-0.4-0.7c-0.2-0.2-0.5-0.3-0.9-0.3c-0.3,0-0.6,0.1-0.7,0.2c-0.2,0.1-0.3,0.3-0.3,0.5c0,0.3,0.1,0.4,0.4,0.6
		c0.3,0.1,0.7,0.3,1.3,0.4c0.7,0.2,1.2,0.3,1.6,0.5c0.4,0.2,0.8,0.4,1.1,0.8c0.3,0.4,0.5,0.9,0.5,1.5c0,0.5-0.1,1-0.4,1.4
		c-0.3,0.4-0.7,0.7-1.3,1C140.4,13,139.8,13.1,139,13.1z M131.2,7.7c0-0.5-0.2-0.8-0.5-1.1c-0.3-0.3-0.7-0.4-1.2-0.4
		c-0.5,0-0.8,0.1-1.2,0.4c-0.3,0.3-0.5,0.6-0.6,1.1H131.2z M134,8.4c0,0.3,0,0.5,0,0.8h-6.2c0,0.6,0.2,1,0.5,1.3
		c0.3,0.3,0.7,0.4,1.2,0.4c0.7,0,1.2-0.3,1.4-0.9h2.9c-0.1,0.6-0.4,1.1-0.8,1.6c-0.4,0.5-0.9,0.8-1.5,1.1c-0.6,0.3-1.2,0.4-2,0.4
		c-0.9,0-1.7-0.2-2.3-0.6c-0.7-0.4-1.2-0.9-1.6-1.6c-0.4-0.7-0.6-1.5-0.6-2.4c0-0.9,0.2-1.7,0.6-2.4c0.4-0.7,0.9-1.2,1.6-1.6
		c0.7-0.4,1.5-0.6,2.4-0.6c0.9,0,1.6,0.2,2.3,0.5c0.7,0.4,1.2,0.9,1.6,1.6C133.8,6.7,134,7.5,134,8.4z M124.2,1.8V4h-3v9h-2.7V4h-3
		V1.8H124.2z M111.9,7.7c0-0.5-0.2-0.8-0.5-1.1s-0.7-0.4-1.2-0.4c-0.5,0-0.8,0.1-1.2,0.4c-0.3,0.3-0.5,0.6-0.6,1.1H111.9z
		 M114.7,8.4c0,0.3,0,0.5,0,0.8h-6.2c0,0.6,0.2,1,0.5,1.3c0.3,0.3,0.7,0.4,1.2,0.4c0.7,0,1.2-0.3,1.4-0.9h2.9
		c-0.1,0.6-0.4,1.1-0.8,1.6c-0.4,0.5-0.9,0.9-1.5,1.1c-0.6,0.3-1.2,0.4-2,0.4c-0.9,0-1.7-0.2-2.3-0.6c-0.7-0.4-1.2-0.9-1.6-1.6
		c-0.4-0.7-0.6-1.5-0.6-2.4c0-0.9,0.2-1.7,0.6-2.4c0.4-0.7,0.9-1.2,1.6-1.6c0.7-0.4,1.5-0.6,2.4-0.6c0.9,0,1.6,0.2,2.3,0.5
		c0.7,0.4,1.2,0.9,1.6,1.6C114.5,6.7,114.7,7.5,114.7,8.4z M101.5,8.5c0-0.7-0.2-1.2-0.6-1.6c-0.4-0.4-0.9-0.6-1.4-0.6
		c-0.5,0-1,0.2-1.4,0.6c-0.4,0.4-0.6,0.9-0.6,1.6c0,0.7,0.2,1.2,0.6,1.6c0.4,0.4,0.9,0.6,1.4,0.6c0.5,0,1-0.2,1.4-0.6
		C101.3,9.8,101.5,9.2,101.5,8.5z M98.8,3.9c0.6,0,1.2,0.1,1.6,0.4c0.5,0.3,0.8,0.6,1.1,1V4.1h2.7V13c0,0.8-0.2,1.6-0.5,2.2
		c-0.3,0.7-0.8,1.2-1.5,1.6c-0.7,0.4-1.5,0.6-2.5,0.6c-1.3,0-2.4-0.3-3.2-0.9c-0.8-0.6-1.3-1.5-1.4-2.5h2.7c0.1,0.3,0.3,0.6,0.6,0.8
		c0.3,0.2,0.7,0.3,1.2,0.3c0.6,0,1-0.2,1.3-0.5c0.3-0.3,0.5-0.8,0.5-1.6v-1.3c-0.3,0.4-0.7,0.8-1.1,1c-0.5,0.3-1,0.4-1.6,0.4
		c-0.7,0-1.4-0.2-2-0.6c-0.6-0.4-1.1-0.9-1.4-1.6c-0.3-0.7-0.5-1.5-0.5-2.4s0.2-1.7,0.5-2.4c0.4-0.7,0.8-1.2,1.4-1.6
		C97.4,4.1,98.1,3.9,98.8,3.9L98.8,3.9z M90.7,8.5c0-0.7-0.2-1.2-0.6-1.6c-0.4-0.4-0.9-0.6-1.4-0.6c-0.5,0-1,0.2-1.4,0.6
		c-0.4,0.4-0.6,0.9-0.6,1.6c0,0.7,0.2,1.2,0.6,1.6c0.4,0.4,0.9,0.6,1.4,0.6c0.5,0,1-0.2,1.4-0.6C90.5,9.8,90.7,9.2,90.7,8.5z
		 M84,8.5c0-0.9,0.2-1.7,0.5-2.4c0.4-0.7,0.8-1.2,1.4-1.6c0.6-0.4,1.3-0.6,2-0.6c0.6,0,1.2,0.1,1.6,0.4c0.5,0.3,0.8,0.6,1.1,1V4.1
		h2.7V13h-2.7v-1.3c-0.3,0.4-0.7,0.8-1.1,1c-0.5,0.3-1,0.4-1.6,0.4c-0.7,0-1.4-0.2-2-0.6c-0.6-0.4-1.1-0.9-1.4-1.6
		C84.1,10.2,84,9.4,84,8.5z M78.8,6.8c0.5,0,0.9-0.1,1.2-0.4s0.4-0.6,0.4-1s-0.1-0.8-0.4-1S79.3,4,78.8,4h-1.5v2.8H78.8z M83.1,5.4
		c0,0.6-0.2,1.2-0.4,1.8c-0.3,0.5-0.8,1-1.4,1.3C80.7,8.8,79.9,9,79,9h-1.7v4h-2.7V1.8H79c0.9,0,1.7,0.2,2.3,0.5
		c0.6,0.3,1.1,0.7,1.4,1.3C82.9,4.1,83.1,4.7,83.1,5.4z M70.3,8.5c0-0.7-0.2-1.2-0.6-1.6c-0.4-0.4-0.9-0.6-1.4-0.6
		c-0.5,0-1,0.2-1.4,0.6c-0.4,0.4-0.6,0.9-0.6,1.6s0.2,1.2,0.6,1.6c0.4,0.4,0.9,0.6,1.4,0.6c0.5,0,1-0.2,1.4-0.6
		C70.1,9.7,70.3,9.2,70.3,8.5L70.3,8.5z M66.4,5.3c0.3-0.4,0.6-0.8,1.1-1c0.5-0.3,1-0.4,1.6-0.4c0.7,0,1.4,0.2,2,0.6
		c0.6,0.4,1.1,0.9,1.4,1.6c0.4,0.7,0.5,1.5,0.5,2.4s-0.2,1.7-0.5,2.4c-0.3,0.7-0.8,1.2-1.4,1.6c-0.6,0.4-1.3,0.6-2,0.6
		c-0.6,0-1.2-0.1-1.6-0.4c-0.4-0.2-0.8-0.6-1.1-1V13h-2.7V1.2h2.7V5.3z M59.4,7.7c0-0.5-0.2-0.8-0.5-1.1s-0.7-0.4-1.2-0.4
		c-0.5,0-0.8,0.1-1.2,0.4c-0.3,0.3-0.5,0.6-0.6,1.1H59.4z M62.2,8.4c0,0.3,0,0.5,0,0.8H56c0,0.6,0.2,1,0.5,1.3
		c0.3,0.3,0.7,0.4,1.2,0.4c0.7,0,1.2-0.3,1.4-0.9H62c-0.1,0.6-0.4,1.1-0.8,1.6c-0.4,0.5-0.9,0.8-1.5,1.1c-0.6,0.3-1.2,0.4-2,0.4
		c-0.9,0-1.7-0.2-2.3-0.6c-0.7-0.4-1.2-0.9-1.6-1.6c-0.4-0.7-0.6-1.5-0.6-2.4c0-0.9,0.2-1.7,0.6-2.4c0.4-0.7,0.9-1.2,1.6-1.6
		c0.7-0.4,1.5-0.6,2.4-0.6c0.9,0,1.6,0.2,2.3,0.5c0.7,0.4,1.2,0.9,1.6,1.6C62,6.7,62.2,7.5,62.2,8.4z M52.4,1.8L49.5,13h-3.3
		l-1.8-7.4L42.6,13h-3.3L36.4,1.8h2.9l1.6,8.2l2-8.2h3l1.9,8.2l1.6-8.2H52.4z"/>
</g>
</svg>
